<?xml version="1.0" encoding="utf-8"?>
<!-- Generator: Adobe Illustrator 22.1.0, SVG Export Plug-In . SVG Version: 6.00 Build 0)  -->
<svg version="1.1" id="Layer_1" xmlns="http://www.w3.org/2000/svg" xmlns:xlink="http://www.w3.org/1999/xlink" x="0px" y="0px"
	 viewBox="0 0 540 343" style="enable-background:new 0 0 540 343;" xml:space="preserve">
<style type="text/css">
	.st0{fill:#F4EF56;}
	.st1{fill:#DAAFDD;stroke:#F6FC83;stroke-width:8;stroke-miterlimit:10;}
</style>
<rect x="-626.7" y="-211.5" style="fill:none;" width="451.1" height="257.4"/>
<text transform="matrix(1 0 0 1 -626.7236 -151.6533)"><tspan x="0" y="0" style="font-family:'GN-KMBFont-UB-OldstyleKana'; font-size:72px;">岩。紙。</tspan><tspan x="0" y="86.4" style="font-family:'GN-KMBFont-UB-OldstyleKana'; font-size:72px;">はさみ！</tspan></text>
<text transform="matrix(1 0 0 1 320.5879 -315.394)" class="st0" style="font-family:'OpenSans'; font-size:72px;">[ROCK. PAPER. SCISSORS!]</text>
<g>
	<g>
		<g>
			<path class="st1" d="M31.2,158.4c0.4-7.6,1.2-15.3,2.3-22.9c-3.8,3.5-7.6,6.9-11.3,10.3c-5.2-8.9-9.8-17.4-13.5-25.6
				c7.8-5.3,15.8-10.8,23.7-16.4c-6,0.9-12,1.8-18.1,2.8c2.8-7.9,6.1-15.8,9.9-23.7c45-8,90-13.9,135.1-17.6
				c-1.7,9.4-3.1,18.8-4.3,28.2c-27.1,1.3-54.2,3.2-81.2,5.6c-1,0.7-1.9,1.5-2.9,2.2c25.1-2.4,50.2-4.4,75.3-6
				c-2.8,20.5-4.5,41-5.1,61.5C104.5,157,67.8,157.6,31.2,158.4z M154.6,64.1c-41.4,3.7-82.7,9.2-124,16.5c5.4-12,12-23.9,19.7-35.8
				c10.6-2.9,21.1-5.6,31.7-8c-2.6,4.7-5.1,9.4-7.5,14.1c3.6-0.7,7.3-1.5,10.9-2.1c2.9-6.9,6-13.7,9.4-20.5
				c10.5-2.5,20.9-4.8,31.4-6.8c-3.1,7.2-5.9,14.5-8.6,21.7c3.6-0.6,7.2-1.1,10.8-1.7c1.4-5,2.9-10,4.6-15
				c10.6-1.8,21.1-3.5,31.7-4.9C160.8,35.7,157.5,49.9,154.6,64.1z M73.4,131.8c9.4-0.5,18.9-0.9,28.3-1.3c0.2-1.5,0.3-3.1,0.5-4.6
				c-9.4,0.5-18.8,1-28.2,1.5C73.8,128.8,73.6,130.3,73.4,131.8z"/>
			<path class="st1" d="M182.5,159c-6.8-1.2-12.9-4.4-18.2-9.4c-6.6-7.3-9-16.2-6.9-26.9c1.6-7,5.3-13.2,11.1-18.7
				c8.1-7,17-10.1,27.1-9.3c7.6,0.8,14,4.3,19.2,10.6c5.7,7.1,7.9,15.8,6.6,26c-1.5,7.9-5.6,14.8-12.6,20.6
				C201.6,157.6,192.8,159.9,182.5,159z M180.5,127.1c-0.1,2.4,0.6,4.4,2.2,6.1c1.6,1.6,3.6,2.4,6.2,2.4c2.4,0,4.5-0.9,6.2-2.6
				c1.7-1.7,2.6-3.8,2.7-6.2c0.1-2.3-0.6-4.3-2.2-6c-1.6-1.7-3.5-2.5-5.9-2.4c-2.5,0.1-4.6,1-6.4,2.8
				C181.6,122.8,180.6,124.8,180.5,127.1z"/>
			<path class="st1" d="M229.8,60.7c2.1-16.2,4.2-32.3,6.4-48.5c1.1,2,2.2,4,3.3,6c1.1-3.8,2.1-7.5,3.1-11.3
				c8.4,1.9,16.9,3.9,25.6,6.1c-3.9,9.4-8.1,18.9-12.5,28.4c0.5,0.5,0.9,1.1,1.4,1.6c3.3-7.5,6.5-15,9.5-22.6
				c7.5,4.2,15.3,8.5,23.3,12.9c-4.2,8.6-8.8,17.2-13.6,25.9c3.5-1.5,7-2.9,10.4-4.4c1.9,7.6,3.9,15.2,5.9,22.8
				c-0.8-20.2-1.9-40.4-3.1-60.6c21.3-3,42-5.2,62.2-6.5c4,11.7,7.9,23.4,11.6,35.1c-4.7,0.1-9.5,0.3-14.2,0.5
				c0.9,4.6,1.7,9.1,2.5,13.7c4.5,0,9,0.1,13.5,0.2c1.9,11.1,3.5,22.2,4.8,33.3c-4.9-0.4-9.7-0.7-14.6-1c0.9,4.7,1.8,9.3,2.6,14
				c0.1-2.5,0.1-5,0.2-7.5c5.2,2.8,10.4,5.5,15.6,8.3c-0.6,15.9-1.9,31.9-3.8,48c-11.6,0.1-23.2,0.3-34.8,0.5
				c-1.8-21.3-4.3-42.7-7.2-64c-1.6,0-3.1-0.1-4.7-0.1c0.4,6.8,0.8,13.7,1.2,20.5c1.6-0.5,3.2-0.9,4.8-1.4c1.1,11,2.1,22.1,2.9,33.1
				c-15.5,3.4-31,6.9-46.6,10.4c-0.3-5.1-0.6-10.1-1-15.2c-1.9,0.1-3.7,0.3-5.6,0.4c-0.2-11.5-0.4-23-0.6-34.5
				c3.8-0.5,7.6-1.1,11.4-1.6c0.7,4.6,1.4,9.2,2.2,13.7c0.7-0.2,1.3-0.4,2-0.6c-0.2-5.3-0.3-10.6-0.5-15.9
				c-5.1,1.1-10.2,2.1-15.4,3.2c-0.3-1.3-0.6-2.7-0.9-4c0.5,18.8,1,37.6,1.4,56.4c-12.3,0-24.5,0.1-36.8,0.2c0.2-18,0.6-36,1.1-54
				c-4.5,0.6-9.1,1.1-13.6,1.7c0.1-10.4,0.2-20.8,0.5-31.2c2.1-0.2,4.1-0.3,6.2-0.5c0.7-1.3,1.4-2.6,2.1-3.9
				C235.2,65.7,232.5,63.2,229.8,60.7z M227.8,145.5c0.8-13.4,1.7-26.8,2.8-40.2c3.9,0.2,7.8,0.4,11.7,0.5
				c-0.7,13.9-1.3,27.7-1.8,41.6C236.3,146.9,232.1,146.2,227.8,145.5z M270.2,69.8c-0.4-1.2-0.8-2.4-1.3-3.5
				c-0.6,1.3-1.3,2.7-1.9,4C268.1,70.1,269.2,70,270.2,69.8z M323.9,58.6c-0.5-4-1-7.9-1.6-11.9c-1,0.2-2,0.4-3,0.6
				c0.4,3.8,0.7,7.5,1.1,11.3C321.6,58.6,322.7,58.6,323.9,58.6z"/>
			<path class="st1" d="M408.9,159.2c-6.9-1.3-13.1-4.5-18.7-9.7c-7.2-7.5-10.4-16.7-10-27.5c0.5-7,3.1-13.1,7.7-18.1
				c6.6-6.3,14.9-8.5,25.3-6.7c7.9,1.5,15.2,5.5,21.8,11.9c7.2,7.1,10.9,15.4,10.9,24.9c-0.5,7.3-4.1,13.6-10.7,18.9
				C428.1,158.1,419.3,160.3,408.9,159.2z M404.1,127.8c0.2,2.4,1.2,4.4,3,6.1c1.8,1.7,3.9,2.6,6.5,2.6c2.4,0.1,4.4-0.7,6-2.3
				c1.5-1.6,2.2-3.5,1.9-5.8c-0.2-2.2-1.3-4.2-3.1-6c-1.8-1.7-4-2.7-6.4-2.8c-2.5-0.1-4.5,0.7-6,2.3
				C404.5,123.6,403.9,125.6,404.1,127.8z"/>
			<path class="st1" d="M7.9,185.8c14.2,1.5,28.4,3,42.6,4.6c-2.2,22.3-1.5,44.2,2.7,65.7c1.8,3,3.7,6,5.6,9
				c-0.7-5.3-1.2-10.6-1.5-16c2.6,1,5.3,2.1,7.9,3.2C68,271.5,73.1,290.4,81,309c-8.7-1.5-17.3-3.2-25.9-5
				c-13.4-17.4-24.9-34.5-34.4-51.5C12.3,230.4,8.1,208.2,7.9,185.8z M62,233c-2.4-10.6-4.2-21.2-5.4-31.8c11.6,1,23.2,1.9,34.9,2.8
				c-0.8-5.5-1.5-11-2-16.6c14.3,0.2,28.6,0.4,42.9,0.6c-0.2,2-0.3,4.1-0.5,6.1c5.8,3.6,11.6,7.2,17.4,10.9
				c1.2,11.1,2.6,22.3,4.4,33.4c-6.6-0.1-13.2-0.1-19.8-0.3c1.2,8.5,2.6,17,4.3,25.5c6.8,1.9,13.6,3.8,20.4,5.6
				c-0.6,13.1-0.6,26.1,0,39c-4.4-2.9-8.9-5.7-13.4-8.5c1.8,9.1,3.9,18.1,6.3,27.2c-12.6-2.2-25.2-4.8-37.8-7.6
				c-10.8-5.9-21.9-11.8-33.2-17.7C74.7,285.9,71,270,69,253.8c10.7,1.6,21.3,3.2,32,4.6c-1.9-7.8-3.6-15.7-5-23.5
				C84.6,234.4,73.3,233.7,62,233z M104.2,286.3c0.2,0.9,0.4,1.8,0.6,2.7c1.4,0.7,2.9,1.4,4.3,2c-0.3-1.2-0.7-2.5-1-3.7
				C106.8,287,105.5,286.6,104.2,286.3z M131.8,206.4c1.4-0.1,2.9-0.3,4.3-0.4c-1.5-2-3-4.1-4.5-6.1
				C131.7,202.1,131.8,204.2,131.8,206.4z"/>
			<path class="st1" d="M162.6,252.8c-1.8-11.5-3.3-23.1-4.4-34.6c16.3,0.8,32.7,1.4,49,2c-2.4-10.2-4.7-20.4-6.9-30.6
				c14.9-0.5,29.8-1,44.7-1.5c0.2,4.2,0.4,8.4,0.7,12.7c10,5.5,19.9,11.1,29.7,16.6c0.6,10.6,1.1,21.2,1.6,31.9
				c-7.7,0.7-15.4,1.3-23.1,1.9c2.6,12,5.2,24,7.7,36c-9.3,2.8-18.5,5.5-27.5,8c-10-1.5-20-3.1-30.1-4.8c-1.1,0.5-2.3,1-3.4,1.5
				c0.2,1.8,0.4,3.7,0.5,5.5c1.7,1.4,3.3,2.8,4.9,4.2c14-0.8,28.1-1.9,42.3-3.2c1.2,12.8,2.3,25.6,3.5,38.5
				c-19.6-0.7-39.3-2.2-58.9-4.4c-7.7-7.3-15.7-14.6-23.9-21.9c-2.9-15.9-5-31.8-6.5-47.8c9.9-1.2,19.9-2.5,30.1-4
				c8.5,0.9,16.9,1.7,25.4,2.4c-0.7-3.2-1.4-6.4-2.1-9.5C198.1,252.4,180.3,252.7,162.6,252.8z M246.6,207.3c0.9,4,1.8,8,2.7,11.9
				c1.7-0.3,3.4-0.7,5.1-1C251.8,214.6,249.2,211,246.6,207.3z"/>
			<path class="st1" d="M305.2,229.9c-0.3-12.8-0.7-25.6-1.2-38.4c20-1.2,40-2.4,60-3.7c3.9,4.6,7.8,9.3,11.6,13.9
				c-3.8,13.3-7.9,26.7-12.2,40.2c5.3,0.2,10.6,0.3,15.9,0.4c2-10.9,3.8-21.8,5.3-32.7c13.2,1,26.3,2,39.4,2.8
				c-3,10.3-6.2,20.7-9.8,31.1c3.4,0.1,6.7,0.1,10.1,0.2c-3.2,12.3-6.9,24.6-11.1,37c-4.2-0.7-8.5-1.5-12.7-2.4
				c-9.5,17.8-19.5,35.8-29.7,54c-8.9-5.3-18.5-11.1-28.7-17.1c9.3-13.6,18.9-27.2,28.5-40.6c-6,0-12,0-18,0
				c-12,18-23.8,36.2-34.8,54.4c-10.8-3.4-21.9-7.1-33.3-11c-1.1-16.1-2.6-32.2-4.2-48.4c6.1-10.7,12.4-21.5,18.7-32.2
				c10,1,19.9,2,29.8,2.8c1-4.7,2-9.4,2.9-14.1C322.7,227.4,314,228.7,305.2,229.9z M317.6,273.4c-1.3-0.1-2.6-0.2-4-0.3
				c-1.8,2.3-3.6,4.6-5.4,6.9c0.6,1.8,1.3,3.7,1.9,5.5C312.6,281.4,315.1,277.4,317.6,273.4z"/>
			<path class="st1" d="M412.1,309.5c7.9-10.8,15.7-21.5,23.3-32.1c9.7,3.8,19,7.2,27.8,10.2c-8.6,10.4-17.5,20.9-26.5,31.5
				C429,316.3,420.8,313.1,412.1,309.5z M443.1,270.6c19.6-29.1,37.1-57.4,50.7-84.3c13.4,5,26.5,9.7,39.4,14
				c-18.5,24.8-40.9,51.4-65.1,79.2C460.1,276.8,451.8,273.8,443.1,270.6z"/>
		</g>
	</g>
	<g>
		<rect x="82" y="150.7" width="371" height="42.7"/>
		<g>
			<path class="st0" d="M98.5,185H92v-25.6h6.5v2h-4.1v21.5h4.1V185z"/>
			<path class="st0" d="M104.6,171.6v8.7h-2.4v-20.9h5.7c2.6,0,4.5,0.5,5.7,1.5c1.2,1,1.8,2.5,1.8,4.4c0,2.8-1.4,4.6-4.2,5.6
				l5.7,9.4H114l-5.1-8.7H104.6z M104.6,169.5h3.3c1.7,0,3-0.3,3.8-1c0.8-0.7,1.2-1.7,1.2-3.1c0-1.4-0.4-2.4-1.2-3
				c-0.8-0.6-2.1-0.9-3.9-0.9h-3.2V169.5z"/>
			<path class="st0" d="M138.4,169.8c0,3.4-0.8,6-2.5,7.9c-1.7,1.9-4.1,2.9-7.1,2.9c-3.1,0-5.5-0.9-7.1-2.8c-1.7-1.9-2.5-4.5-2.5-8
				c0-3.4,0.8-6.1,2.5-7.9s4.1-2.8,7.2-2.8c3,0,5.4,1,7,2.9C137.6,163.8,138.4,166.5,138.4,169.8z M121.7,169.8c0,2.8,0.6,5,1.8,6.5
				c1.2,1.5,3,2.2,5.3,2.2c2.3,0,4.1-0.7,5.3-2.2c1.2-1.5,1.8-3.6,1.8-6.5c0-2.8-0.6-5-1.8-6.4c-1.2-1.5-2.9-2.2-5.2-2.2
				c-2.3,0-4.1,0.7-5.3,2.2C122.4,164.9,121.7,167,121.7,169.8z"/>
			<path class="st0" d="M152.1,161.3c-2.3,0-4.1,0.8-5.4,2.3c-1.3,1.5-2,3.6-2,6.3c0,2.7,0.6,4.9,1.9,6.4c1.3,1.5,3.1,2.2,5.5,2.2
				c1.5,0,3.1-0.3,5-0.8v2.1c-1.5,0.5-3.2,0.8-5.4,0.8c-3.1,0-5.5-0.9-7.1-2.8c-1.7-1.9-2.5-4.5-2.5-8c0-2.2,0.4-4,1.2-5.7
				c0.8-1.6,2-2.9,3.5-3.8c1.5-0.9,3.3-1.3,5.4-1.3c2.2,0,4.1,0.4,5.8,1.2l-1,2.1C155.2,161.6,153.6,161.3,152.1,161.3z"/>
			<path class="st0" d="M176.7,180.3h-2.9l-7.6-10.2l-2.2,1.9v8.2h-2.4v-20.9h2.4v10.4l9.5-10.4h2.9l-8.4,9.1L176.7,180.3z"/>
			<path class="st0" d="M178.9,178.8c0-0.6,0.1-1.1,0.4-1.5c0.3-0.3,0.7-0.5,1.3-0.5c0.6,0,1,0.2,1.3,0.5s0.5,0.8,0.5,1.5
				c0,0.6-0.2,1.1-0.5,1.4s-0.7,0.5-1.3,0.5c-0.5,0-0.9-0.2-1.2-0.5C179.1,180,178.9,179.5,178.9,178.8z"/>
			<path class="st0" d="M208.3,165.5c0,2.1-0.7,3.7-2.2,4.9c-1.4,1.1-3.5,1.7-6.2,1.7h-2.5v8.2H195v-20.9h5.4
				C205.7,159.4,208.3,161.4,208.3,165.5z M197.5,170h2.2c2.2,0,3.7-0.3,4.7-1c1-0.7,1.4-1.8,1.4-3.4c0-1.4-0.5-2.4-1.4-3.1
				c-0.9-0.7-2.3-1-4.2-1h-2.7V170z"/>
			<path class="st0" d="M225.8,180.3l-2.6-6.7h-8.4l-2.6,6.7h-2.5l8.3-21h2l8.2,21H225.8z M222.5,171.5L220,165
				c-0.3-0.8-0.6-1.8-1-3c-0.2,0.9-0.5,1.9-0.9,3l-2.5,6.5H222.5z"/>
			<path class="st0" d="M244.5,165.5c0,2.1-0.7,3.7-2.2,4.9c-1.4,1.1-3.5,1.7-6.2,1.7h-2.5v8.2h-2.4v-20.9h5.4
				C241.9,159.4,244.5,161.4,244.5,165.5z M233.7,170h2.2c2.2,0,3.7-0.3,4.7-1c1-0.7,1.4-1.8,1.4-3.4c0-1.4-0.5-2.4-1.4-3.1
				c-0.9-0.7-2.3-1-4.2-1h-2.7V170z"/>
			<path class="st0" d="M260.6,180.3h-11.7v-20.9h11.7v2.2h-9.2v6.7h8.7v2.1h-8.7v7.7h9.2V180.3z"/>
			<path class="st0" d="M267.6,171.6v8.7h-2.4v-20.9h5.7c2.6,0,4.5,0.5,5.7,1.5c1.2,1,1.8,2.5,1.8,4.4c0,2.8-1.4,4.6-4.2,5.6
				l5.7,9.4h-2.9l-5.1-8.7H267.6z M267.6,169.5h3.3c1.7,0,3-0.3,3.8-1c0.8-0.7,1.2-1.7,1.2-3.1c0-1.4-0.4-2.4-1.2-3
				c-0.8-0.6-2.1-0.9-3.9-0.9h-3.2V169.5z"/>
			<path class="st0" d="M282.6,178.8c0-0.6,0.1-1.1,0.4-1.5s0.7-0.5,1.3-0.5c0.6,0,1,0.2,1.3,0.5s0.5,0.8,0.5,1.5
				c0,0.6-0.2,1.1-0.5,1.4s-0.7,0.5-1.3,0.5c-0.5,0-0.9-0.2-1.2-0.5C282.8,180,282.6,179.5,282.6,178.8z"/>
			<path class="st0" d="M310.6,174.7c0,1.8-0.7,3.3-2,4.3c-1.3,1-3.2,1.5-5.4,1.5c-2.5,0-4.4-0.3-5.7-1v-2.3
				c0.9,0.4,1.8,0.6,2.8,0.9c1,0.2,2,0.3,3,0.3c1.6,0,2.8-0.3,3.7-0.9c0.8-0.6,1.2-1.5,1.2-2.6c0-0.7-0.1-1.3-0.4-1.8
				c-0.3-0.5-0.8-0.9-1.5-1.3c-0.7-0.4-1.7-0.8-3.1-1.3c-1.9-0.7-3.3-1.5-4.2-2.5c-0.8-1-1.3-2.2-1.3-3.7c0-1.6,0.6-2.9,1.8-3.9
				c1.2-1,2.8-1.4,4.8-1.4c2.1,0,4,0.4,5.7,1.1l-0.8,2.1c-1.7-0.7-3.4-1.1-5-1.1c-1.3,0-2.3,0.3-3,0.8c-0.7,0.6-1.1,1.3-1.1,2.3
				c0,0.7,0.1,1.3,0.4,1.8c0.3,0.5,0.7,0.9,1.4,1.3c0.6,0.4,1.6,0.8,2.9,1.3c2.2,0.8,3.7,1.6,4.5,2.5
				C310.2,172.1,310.6,173.3,310.6,174.7z"/>
			<path class="st0" d="M323.8,161.3c-2.3,0-4.1,0.8-5.4,2.3c-1.3,1.5-2,3.6-2,6.3c0,2.7,0.6,4.9,1.9,6.4c1.3,1.5,3.1,2.2,5.5,2.2
				c1.5,0,3.1-0.3,5-0.8v2.1c-1.5,0.5-3.2,0.8-5.4,0.8c-3.1,0-5.5-0.9-7.1-2.8c-1.7-1.9-2.5-4.5-2.5-8c0-2.2,0.4-4,1.2-5.7
				c0.8-1.6,2-2.9,3.5-3.8c1.5-0.9,3.3-1.3,5.4-1.3c2.2,0,4.1,0.4,5.8,1.2l-1,2.1C327,161.6,325.4,161.3,323.8,161.3z"/>
			<path class="st0" d="M333.4,180.3v-20.9h2.4v20.9H333.4z"/>
			<path class="st0" d="M353.3,174.7c0,1.8-0.7,3.3-2,4.3c-1.3,1-3.2,1.5-5.4,1.5c-2.5,0-4.4-0.3-5.7-1v-2.3
				c0.9,0.4,1.8,0.6,2.8,0.9c1,0.2,2,0.3,3,0.3c1.6,0,2.8-0.3,3.7-0.9c0.8-0.6,1.2-1.5,1.2-2.6c0-0.7-0.1-1.3-0.4-1.8
				c-0.3-0.5-0.8-0.9-1.5-1.3c-0.7-0.4-1.7-0.8-3.1-1.3c-1.9-0.7-3.3-1.5-4.2-2.5c-0.8-1-1.3-2.2-1.3-3.7c0-1.6,0.6-2.9,1.8-3.9
				c1.2-1,2.8-1.4,4.8-1.4c2.1,0,4,0.4,5.7,1.1l-0.8,2.1c-1.7-0.7-3.4-1.1-5-1.1c-1.3,0-2.3,0.3-3,0.8c-0.7,0.6-1.1,1.3-1.1,2.3
				c0,0.7,0.1,1.3,0.4,1.8c0.3,0.5,0.7,0.9,1.4,1.3c0.6,0.4,1.6,0.8,2.9,1.3c2.2,0.8,3.7,1.6,4.5,2.5
				C352.9,172.1,353.3,173.3,353.3,174.7z"/>
			<path class="st0" d="M369.4,174.7c0,1.8-0.7,3.3-2,4.3c-1.3,1-3.2,1.5-5.4,1.5c-2.5,0-4.4-0.3-5.7-1v-2.3
				c0.9,0.4,1.8,0.6,2.8,0.9c1,0.2,2,0.3,3,0.3c1.6,0,2.8-0.3,3.7-0.9s1.2-1.5,1.2-2.6c0-0.7-0.1-1.3-0.4-1.8
				c-0.3-0.5-0.8-0.9-1.5-1.3c-0.7-0.4-1.7-0.8-3.1-1.3c-1.9-0.7-3.3-1.5-4.2-2.5c-0.8-1-1.3-2.2-1.3-3.7c0-1.6,0.6-2.9,1.8-3.9
				c1.2-1,2.8-1.4,4.8-1.4c2.1,0,4,0.4,5.7,1.1l-0.8,2.1c-1.7-0.7-3.4-1.1-5-1.1c-1.3,0-2.3,0.3-3,0.8c-0.7,0.6-1.1,1.3-1.1,2.3
				c0,0.7,0.1,1.3,0.4,1.8c0.3,0.5,0.7,0.9,1.4,1.3c0.6,0.4,1.6,0.8,2.9,1.3c2.2,0.8,3.7,1.6,4.5,2.5
				C369,172.1,369.4,173.3,369.4,174.7z"/>
			<path class="st0" d="M391.9,169.8c0,3.4-0.8,6-2.5,7.9c-1.7,1.9-4.1,2.9-7.1,2.9c-3.1,0-5.5-0.9-7.1-2.8c-1.7-1.9-2.5-4.5-2.5-8
				c0-3.4,0.8-6.1,2.5-7.9s4.1-2.8,7.2-2.8c3,0,5.4,1,7,2.9C391.1,163.8,391.9,166.5,391.9,169.8z M375.2,169.8c0,2.8,0.6,5,1.8,6.5
				c1.2,1.5,3,2.2,5.3,2.2c2.3,0,4.1-0.7,5.3-2.2s1.8-3.6,1.8-6.5c0-2.8-0.6-5-1.8-6.4c-1.2-1.5-2.9-2.2-5.2-2.2
				c-2.3,0-4.1,0.7-5.3,2.2C375.8,164.9,375.2,167,375.2,169.8z"/>
			<path class="st0" d="M399,171.6v8.7h-2.4v-20.9h5.7c2.6,0,4.5,0.5,5.7,1.5c1.2,1,1.8,2.5,1.8,4.4c0,2.8-1.4,4.6-4.2,5.6l5.7,9.4
				h-2.9l-5.1-8.7H399z M399,169.5h3.3c1.7,0,3-0.3,3.8-1c0.8-0.7,1.2-1.7,1.2-3.1c0-1.4-0.4-2.4-1.2-3c-0.8-0.6-2.1-0.9-3.9-0.9
				H399V169.5z"/>
			<path class="st0" d="M426.5,174.7c0,1.8-0.7,3.3-2,4.3c-1.3,1-3.2,1.5-5.4,1.5c-2.5,0-4.4-0.3-5.7-1v-2.3
				c0.9,0.4,1.8,0.6,2.8,0.9c1,0.2,2,0.3,3,0.3c1.6,0,2.8-0.3,3.7-0.9c0.8-0.6,1.2-1.5,1.2-2.6c0-0.7-0.1-1.3-0.4-1.8
				c-0.3-0.5-0.8-0.9-1.5-1.3c-0.7-0.4-1.7-0.8-3.1-1.3c-1.9-0.7-3.3-1.5-4.2-2.5c-0.8-1-1.3-2.2-1.3-3.7c0-1.6,0.6-2.9,1.8-3.9
				c1.2-1,2.8-1.4,4.8-1.4c2.1,0,4,0.4,5.7,1.1l-0.8,2.1c-1.7-0.7-3.4-1.1-5-1.1c-1.3,0-2.3,0.3-3,0.8c-0.7,0.6-1.1,1.3-1.1,2.3
				c0,0.7,0.1,1.3,0.4,1.8c0.3,0.5,0.7,0.9,1.4,1.3c0.6,0.4,1.6,0.8,2.9,1.3c2.2,0.8,3.7,1.6,4.5,2.5
				C426.1,172.1,426.5,173.3,426.5,174.7z"/>
			<path class="st0" d="M430.1,178.8c0-1.3,0.6-1.9,1.7-1.9c0.6,0,1,0.2,1.3,0.5c0.3,0.3,0.5,0.8,0.5,1.4c0,0.6-0.2,1.1-0.5,1.4
				c-0.3,0.3-0.7,0.5-1.3,0.5c-0.5,0-0.9-0.2-1.2-0.5C430.3,180,430.1,179.5,430.1,178.8z M432.6,174.5h-1.5l-0.7-15.2h3
				L432.6,174.5z"/>
			<path class="st0" d="M436.5,182.9h4.1v-21.5h-4.1v-2h6.5V185h-6.5V182.9z"/>
		</g>
	</g>
</g>
</svg>
